<?xml version="1.0" standalone="no"?>
<!DOCTYPE svg PUBLIC "-//W3C//DTD SVG 20010904//EN"
 "http://www.w3.org/TR/2001/REC-SVG-20010904/DTD/svg10.dtd">
<svg version="1.0" xmlns="http://www.w3.org/2000/svg"
 width="630.000000pt" height="601.000000pt" viewBox="0 0 630.000000 601.000000"
 preserveAspectRatio="xMidYMid meet">

<g transform="translate(0.000000,601.000000) scale(0.100000,-0.100000)"
fill="#000000" stroke="none">
<path d="M3100 5664 c-25 -2 -88 -9 -140 -15 -52 -6 -151 -17 -220 -24 -69 -7
-150 -23 -180 -34 -30 -11 -70 -20 -88 -21 -18 0 -41 -4 -51 -10 -10 -5 -60
-14 -112 -21 -128 -16 -225 -64 -427 -214 -44 -33 -111 -80 -148 -105 -37 -25
-79 -58 -93 -73 -14 -16 -75 -70 -136 -121 -119 -101 -203 -186 -335 -341
-112 -131 -192 -250 -275 -410 -38 -71 -72 -131 -77 -133 -4 -2 -8 -9 -8 -16
0 -7 -14 -44 -31 -82 -133 -292 -219 -708 -219 -1067 0 -396 79 -765 243
-1136 22 -51 40 -102 40 -112 -1 -11 4 -19 12 -19 7 0 38 -44 69 -97 32 -54
62 -107 69 -118 35 -59 176 -238 249 -318 47 -51 87 -96 89 -102 2 -5 21 -25
41 -43 21 -19 35 -39 31 -45 -3 -6 -1 -7 5 -3 6 3 65 -38 131 -92 66 -54 164
-128 218 -164 115 -78 332 -198 357 -198 19 0 93 -36 117 -56 24 -21 258 -102
389 -134 64 -15 176 -35 250 -45 74 -9 143 -21 152 -26 10 -5 173 -9 363 -9
l346 0 61 31 c69 35 141 59 178 59 14 0 51 13 83 29 32 16 82 32 112 36 31 3
63 15 76 26 13 11 29 17 37 14 20 -7 82 16 82 31 0 7 62 45 138 84 294 154
516 324 747 571 50 54 93 95 97 93 4 -2 10 5 13 17 4 11 20 35 35 53 16 18 48
66 71 107 23 41 51 85 61 99 64 84 161 252 214 370 21 47 42 88 47 91 5 4 7
11 4 16 -3 5 7 45 23 89 44 119 97 332 122 489 18 117 22 182 23 395 0 267 -7
346 -51 567 -45 224 -116 429 -224 643 -91 181 -111 216 -187 328 -24 34 -43
66 -43 70 0 4 -29 40 -65 80 -36 40 -67 83 -71 95 -3 12 -32 44 -65 71 -32 27
-56 52 -54 57 3 4 -4 10 -15 14 -11 3 -41 31 -67 61 -26 30 -51 54 -56 54 -5
0 -48 31 -96 68 -419 330 -878 522 -1391 582 -96 11 -388 20 -470 14z m435
-245 c439 -45 883 -228 1258 -520 105 -81 303 -279 390 -389 300 -376 481
-817 528 -1284 17 -170 7 -517 -20 -671 -100 -584 -423 -1133 -886 -1504 -188
-151 -478 -315 -699 -396 -649 -237 -1327 -198 -1948 112 -1109 554 -1632
1831 -1232 3006 119 350 339 694 615 962 539 523 1233 761 1994 684z"/>
<path d="M3653 4336 c-201 -39 -396 -148 -515 -288 -144 -171 -218 -335 -303
-673 -60 -240 -93 -329 -170 -465 -68 -121 -75 -139 -75 -208 l0 -57 -136
-136 -137 -137 -36 16 c-21 9 -65 16 -106 16 -87 0 -153 -31 -213 -99 -69 -79
-88 -169 -56 -275 22 -74 98 -150 177 -176 57 -19 59 -21 82 -78 94 -232 398
-248 512 -27 40 76 45 160 14 240 l-18 49 132 132 c129 129 134 133 168 127
55 -9 100 6 210 71 136 81 221 113 439 166 220 54 316 85 425 136 282 132 471
341 548 607 131 448 -140 924 -591 1043 -102 27 -257 34 -351 16z m300 -232
c31 -10 66 -26 77 -36 26 -24 25 -63 -1 -89 -23 -23 -36 -23 -139 6 -155 43
-314 -5 -455 -135 -41 -39 -84 -70 -95 -70 -28 0 -60 35 -60 67 0 21 18 45 73
98 82 82 199 146 307 170 82 19 216 14 293 -11z m-687 -423 c10 -19 7 -36 -18
-104 -35 -98 -42 -107 -79 -107 -36 0 -59 24 -59 60 0 36 37 138 58 163 23 26
83 19 98 -12z m-511 -1165 c48 -11 50 -13 56 -51 3 -22 9 -51 13 -65 5 -22
-11 -42 -144 -175 -83 -82 -153 -160 -156 -172 -4 -15 5 -42 26 -78 28 -49 32
-64 28 -107 -6 -61 -31 -96 -89 -126 -100 -52 -204 16 -213 137 -5 70 -25 91
-88 91 -119 0 -193 101 -153 206 35 92 134 120 237 68 29 -15 59 -23 72 -20
12 3 91 75 175 161 111 112 159 154 170 149 9 -3 39 -12 66 -18z"/>
</g>
</svg>
